<?xml version="1.0" standalone="no"?>
<!DOCTYPE svg PUBLIC "-//W3C//DTD SVG 20010904//EN"
 "http://www.w3.org/TR/2001/REC-SVG-20010904/DTD/svg10.dtd">
<svg version="1.0" xmlns="http://www.w3.org/2000/svg"
 width="364.000000pt" height="364.000000pt" viewBox="0 0 364.000000 364.000000"
 preserveAspectRatio="xMidYMid meet">
<metadata>
Created by potrace 1.11, written by Peter Selinger 2001-2013
</metadata>
<g transform="translate(0.000000,364.000000) scale(0.100000,-0.100000)"
fill="#000000" stroke="none">
<path d="M1770 3618 c-6 -7 -58 -76 -116 -153 -58 -77 -115 -151 -125 -165
-11 -14 -105 -137 -209 -275 -105 -137 -196 -257 -203 -265 -32 -39 -48 -74
-43 -94 3 -11 8 -50 11 -86 11 -134 16 -186 20 -225 26 -232 25 -264 -14 -360
-17 -44 -45 -114 -61 -155 -16 -41 -47 -122 -70 -180 -34 -88 -39 -112 -33
-145 8 -45 8 -44 15 -65 11 -28 16 -60 10 -60 -4 0 -20 14 -37 31 -16 17 -43
40 -58 52 -16 12 -41 33 -56 47 -15 14 -45 39 -67 57 -21 17 -57 48 -79 67
-22 20 -42 32 -46 28 -5 -6 -31 -99 -44 -157 -13 -58 -63 -246 -73 -275 -3 -8
-6 -19 -6 -25 -1 -5 -5 -24 -9 -40 -6 -25 1 -49 40 -130 26 -55 48 -102 48
-105 1 -3 29 -62 63 -132 34 -69 62 -131 62 -137 0 -6 5 -11 10 -11 6 0 10 -5
10 -10 0 -6 23 -59 51 -118 28 -59 71 -147 94 -197 23 -49 65 -136 93 -193 28
-56 52 -106 53 -110 1 -4 4 -13 6 -19 4 -10 189 -13 882 -12 l876 0 24 31 c21
26 25 44 28 109 2 72 -5 96 -22 69 -4 -6 -11 -8 -16 -5 -5 4 -9 2 -9 -3 0 -5
-8 -12 -17 -16 -10 -3 -28 -10 -40 -15 l-22 -10 19 42 c89 204 224 495 236
508 8 9 23 43 34 75 23 74 63 168 73 172 4 2 7 10 7 17 0 7 7 26 15 42 8 15
35 73 61 128 l45 100 -17 60 c-9 33 -17 65 -19 70 -1 6 -4 17 -7 25 -9 24 -38
123 -42 145 -3 11 -13 47 -24 80 -11 33 -30 97 -42 143 -13 45 -24 82 -25 82
-6 0 -575 -573 -576 -581 -2 -15 -5 -22 -19 -54 -7 -16 -13 -33 -12 -37 1 -5
-3 -8 -9 -8 -7 0 -8 14 -4 43 11 66 20 124 41 277 6 43 12 80 20 123 3 17 7
46 9 62 2 17 6 44 8 60 3 17 8 50 11 75 3 25 14 104 25 175 11 72 22 148 26
170 3 23 7 50 9 60 2 11 7 47 11 80 4 32 9 68 11 79 2 11 6 38 9 61 4 22 8 54
11 70 29 195 29 195 -13 241 -21 23 -58 65 -83 94 -25 30 -60 69 -77 87 -18
19 -33 36 -33 39 0 2 -12 16 -27 32 -16 15 -53 57 -83 92 -30 35 -64 73 -75
85 -11 11 -47 52 -80 90 -80 93 -115 133 -145 165 -14 15 -47 52 -74 84 -92
108 -104 118 -116 104z"/>
</g>
</svg>
